<svg xmlns="http://www.w3.org/2000/svg" xmlns:xlink="http://www.w3.org/1999/xlink" fill="none" version="1.1" width="400" height="400" viewBox="0 0 400 400"><g style="mix-blend-mode:passthrough"><g style="mix-blend-mode:passthrough"><rect x="0" y="0" width="400" height="400" rx="36" fill="#FFC0CB" fill-opacity="0.3019607961177826"/></g><g style="mix-blend-mode:passthrough"><g style="mix-blend-mode:passthrough"><path d="M197.383,287.13C177.61,314.901,146.0829,329.697,133.7995,330.099C131.4101,322.722,130.1669,311.517,131.3795,297.547C118.0683,302.651,106.7796,304.54200000000003,98.9461,304.23199999999997C96.1956,293.057,100.9613,262.26300000000003,118.9878,236.566C86.9247,225.461,63.88479,199.524,60,187.875C66.3704,183.471,76.7296,179.075,90.4333,176.24599999999998C81.7483,164.9207,76.7137,154.6192,74.7704,147.00740000000002C85.2154,140.84969999999998,118.93690000000001,136.4857,150.10129999999998,148.696C146.7994,113.3298,162.791,80.1099,172.413,71.79713C178.894,76.03548,186.881,83.9755,194.688,95.612C201.852,83.2633,209.454,74.68833,215.745,70C225.952,77.78018,244.188,110.4964,242.673,146.39749999999998C276.527,131.3799,315.102,137.6528,326.145,144.8338C323.9,152.2561,318.531,162.1644,309.571,172.934C323.405,176.369,333.748,181.28199999999998,340,186.022C335.369,198.118,308.75,225.16,273.51800000000003,233.527C293.044,260.31,297.63,293.563,294.48900000000003,305.18C286.751,305.308,275.697,303.217,262.725,297.962C263.69399999999996,312.21299999999997,262.19100000000003,323.584,259.601,331C247.409,330.321,216.548,315.002,197.383,287.13Z" fill-rule="evenodd" fill="#FFC0CB" fill-opacity="0.7799999713897705"/><path d="M197.383,287.13C197.177,287.419,196.97,287.706,196.762,287.99199999999996C176.957,315.207,145.9552,329.701,133.7995,330.099C131.4734,322.918,130.2337,312.108,131.28820000000002,298.652C131.3169,298.28499999999997,131.3474,297.91700000000003,131.3795,297.547C131.0324,297.68,130.6868,297.81100000000004,130.3425,297.93899999999996C117.482,302.748,106.5754,304.534,98.9461,304.23199999999997C96.226,293.18100000000004,100.857,262.94,118.3957,237.419C118.5914,237.134,118.78880000000001,236.85,118.9878,236.566C118.66040000000001,236.453,118.334,236.338,118.0085,236.222C86.4562,224.933,63.84513,199.405,60,187.875C66.20134,183.588,76.18260000000001,179.308,89.3494,176.475C89.70830000000001,176.397,90.0697,176.321,90.4333,176.24599999999998C90.2074,175.952,89.9839,175.65800000000002,89.7629,175.364C81.4884,164.3865,76.6632,154.4212,74.7704,147.00740000000002C85.0992,140.91809999999998,118.18979999999999,136.5829,149.0607,148.2948C149.4078,148.4265,149.7547,148.5602,150.10129999999998,148.696C150.0667,148.3254,150.0342,147.95510000000002,150.0038,147.58499999999998C147.1338,112.63640000000001,162.892,80.0228,172.413,71.79713C178.72199999999998,75.92298,186.458,83.5566,194.066,94.6931C194.274,94.99680000000001,194.481,95.3031,194.688,95.612C194.875,95.2902,195.062,94.9711,195.249,94.6545C202.247,82.8191,209.618,74.56618,215.745,70C225.847,77.69987,243.813,109.8237,242.713,145.2868C242.702,145.6566,242.688,146.0269,242.673,146.39749999999998C243.012,146.2471,243.351,146.09879999999998,243.691,145.9527C277.297,131.50560000000002,315.21299999999997,137.72469999999998,326.145,144.8338C323.96,152.05939999999998,318.814,161.6409,310.276,172.07999999999998C310.044,172.364,309.80899999999997,172.649,309.571,172.934C309.932,173.024,310.28999999999996,173.114,310.645,173.20600000000002C323.942,176.625,333.911,181.406,340,186.022C335.415,197.998,309.278,224.623,274.568,233.272C274.219,233.359,273.869,233.444,273.51800000000003,233.527C273.731,233.819,273.94100000000003,234.111,274.15,234.404C293.14300000000003,261.031,297.596,293.68899999999996,294.48900000000003,305.18C286.957,305.305,276.28200000000004,303.326,263.754,298.374C263.413,298.23900000000003,263.07,298.101,262.725,297.962C262.75,298.33299999999997,262.774,298.701,262.796,299.068C263.615,312.802,262.123,323.777,259.601,331C247.536,330.328,217.192,315.321,197.989,288.002C197.785,287.71299999999997,197.583,287.422,197.383,287.13ZM258.903,329.944Q254.446,329.513,247.803,326.85Q239.957,323.70500000000004,231.643,318.419Q222.297,312.476,214.155,304.91499999999996Q204.943,296.36,198.207,286.56399999999996L197.397,285.38599999999997L196.568,286.55Q189.62,296.308,180.167,304.75800000000004Q171.81799999999998,312.22,162.263,318.023Q153.772,323.18,145.78379999999999,326.185Q139.0206,328.729,134.5213,329.059Q132.8501,323.557,132.2353,316.212Q131.5125,307.578,132.3757,297.63300000000004L132.514,296.041L131.0215,296.613Q121.5504,300.245,112.9162,301.938Q105.5743,303.379,99.75200000000001,303.256Q98.9203,299.16499999999996,99.3798,292.629Q99.9223,284.91200000000003,102.14529999999999,276.089Q104.6242,266.25,108.7798,256.81100000000004Q113.452,246.199,119.8064,237.141L120.5678,236.055L119.3151,235.622Q108.0475,231.719,97.31790000000001,225.062Q87.8389,219.181,79.6,211.685Q72.2757,205.021,67.14463,198.233Q62.7986,192.483,61.20177,188.268Q65.98523,185.091,72.8323,182.401Q80.8802,179.239,90.63550000000001,177.226L92.1973,176.90300000000002L91.2269,175.638Q85.0473,167.5793,80.9597,159.7704Q77.4829,153.1283,75.9354,147.4996Q79.8485,145.4017,86.7721,143.9346Q94.9474,142.2025,104.6906,141.96339999999998Q115.63380000000001,141.69490000000002,126.4969,143.4028Q138.7791,145.3339,149.7365,149.62709999999998L151.24779999999998,150.2192L151.0969,148.603Q149.9385,136.1947,151.8312,123.07220000000001Q153.4971,111.5215,157.3551,100.4301Q160.768,90.618,165.268,82.8473Q169.077,76.27167,172.50400000000002,73.06031Q177.251,76.29129,182.329,81.62010000000001Q188.3,87.8854,193.858,96.1691L194.75,97.4987L195.553,96.1138Q200.65,87.3274,206.31,80.5758Q211.122,74.83514,215.731,71.2664Q219.389,74.2949,223.637,80.7222Q228.659,88.3193,232.681,98.0359Q237.233,109.0344,239.56,120.6058Q242.205,133.7645,241.674,146.3553L241.606,147.9648L243.078,147.3116Q254.936,142.0516,268.608,139.7944Q280.598,137.8148,292.925,138.2904Q303.775,138.7092,312.972,140.9094Q320.751,142.77030000000002,324.96,145.2742Q323.194,150.74790000000002,319.51,157.12869999999998Q315.18100000000004,164.6277,308.803,172.29500000000002L307.783,173.52100000000002L309.33000000000004,173.905Q319.173,176.349,327.225,179.904Q334.073,182.92700000000002,338.782,186.363Q336.888,190.774,331.85,196.725Q325.895,203.758,317.609,210.393Q308.219,217.911,297.658,223.388Q285.637,229.621,273.28700000000003,232.554L271.824,232.902L272.71000000000004,234.116Q279.579,243.538,284.55899999999997,254.793Q288.969,264.75800000000004,291.53200000000004,275.278Q293.817,284.656,294.28499999999997,292.906Q294.68100000000004,299.894,293.706,304.18600000000004Q287.96799999999996,304.175,280.78200000000004,302.61199999999997Q272.33500000000004,300.776,263.1,297.03499999999997L261.619,296.435L261.727,298.03Q262.41700000000003,308.16999999999996,261.503,316.94Q260.726,324.399,258.903,329.944Z" fill-rule="evenodd" fill="#EB6078" fill-opacity="0.75"/></g><g style="mix-blend-mode:passthrough"><path d="M207.12504276123047,160.86351525878905Q207.46164276123045,160.69031525878907,207.7855427612305,160.49461525878905Q208.10944276123047,160.29881525878906,208.41924276123046,160.08141525878906Q208.72904276123046,159.86401525878907,209.02314276123047,159.62591525878906Q209.3172427612305,159.38781525878906,209.59444276123048,159.13021525878906Q209.87164276123048,158.87261525878907,210.13044276123048,158.59671525878906Q210.38934276123047,158.32081525878905,210.62874276123046,158.02781525878908Q210.86804276123047,157.73491525878907,211.08684276123046,157.42621525878906Q211.30554276123047,157.11761525878907,211.50264276123048,156.79481525878907Q211.69974276123048,156.47191525878907,211.87424276123045,156.13641525878907Q212.04884276123047,155.80091525878908,212.1999427612305,155.45421525878908Q212.35114276123045,155.10751525878905,212.47814276123046,154.75131525878908Q212.60524276123047,154.39511525878908,212.70754276123046,154.03111525878907Q212.80994276123047,153.66711525878907,212.88714276123045,153.29691525878906Q212.96434276123045,152.92671525878907,213.01594276123046,152.55221525878906Q213.06764276123047,152.17761525878907,213.09354276123048,151.80041525878906Q213.11944276123046,151.42311525878907,213.11944276123046,151.04501525878905Q213.11944276123046,150.77391525878906,213.10614276123047,150.50311525878905Q213.09274276123045,150.23231525878907,213.06614276123048,149.96243525878907Q213.03954276123045,149.69259525878905,212.99974276123046,149.42439525878905Q212.95984276123045,149.15618525878907,212.90694276123048,148.89025525878907Q212.85394276123048,148.62432525878907,212.78794276123045,148.36131525878906Q212.72204276123045,148.09829525878905,212.64314276123048,147.83883525878906Q212.56434276123048,147.57936525878907,212.47294276123046,147.32407525878907Q212.38144276123046,147.06878525878906,212.27754276123045,146.81828525878907Q212.17364276123047,146.56778525878906,212.05754276123048,146.32268525878905Q211.94144276123046,146.07757525878907,211.81354276123045,145.83844525878905Q211.68554276123047,145.59932525878907,211.54594276123046,145.36675525878906Q211.40634276123046,145.13419525878905,211.25554276123046,144.90875525878906Q211.10464276123048,144.68330525878906,210.94294276123048,144.46552525878906Q210.7812427612305,144.24774525878905,210.60894276123048,144.03814525878906Q210.43674276123045,143.82855525878907,210.25444276123045,143.62765525878908Q210.07204276123048,143.42675525878906,209.88014276123047,143.23502525878905Q209.68814276123047,143.04330525878908,209.48694276123047,142.86121525878906Q209.28574276123047,142.67912525878907,209.07594276123046,142.50711525878907Q208.86604276123046,142.33510525878907,208.64794276123047,142.17359525878905Q208.42984276123047,142.01207525878905,208.20414276123046,141.86143525878907Q207.97844276123047,141.71079525878906,207.74554276123047,141.57140525878907Q207.51264276123047,141.43201525878905,207.27324276123045,141.30419525878906Q207.03374276123049,141.17638525878905,206.78834276123047,141.06045525878906Q206.54294276123045,140.94452825878906,206.29204276123045,140.84076725878907Q206.04124276123048,140.73700625878905,205.78564276123046,140.64566225878906Q205.52994276123047,140.55431825878907,205.2701427612305,140.47561025878906Q205.01034276123048,140.39690225878905,204.7470427612305,140.33102025878907Q204.48364276123047,140.26513925878905,204.21734276123047,140.21224225878908Q203.95104276123047,140.15934525878907,203.68254276123048,140.11956125878908Q203.4139427612305,140.07977645878907,203.14374276123047,140.05320005878906Q202.87354276123045,140.02662365878905,202.6023427612305,140.01331945878906Q202.33124276123047,140.00001525878906,202.05974276123047,140.00001525878906Q201.78824276123046,140.00001525878906,201.51704276123047,140.01331945878906Q201.24584276123045,140.02662365878905,200.97564276123046,140.05320005878906Q200.70544276123047,140.07977645878907,200.43694276123045,140.11956125878908Q200.16834276123046,140.15934525878907,199.90204276123046,140.21224225878908Q199.63574276123046,140.26513925878905,199.37244276123047,140.33102025878907Q199.10904276123046,140.39690225878905,198.84924276123047,140.47561025878906Q198.5894427612305,140.55431825878907,198.33384276123047,140.64566225878906Q198.07814276123048,140.73700625878905,197.82734276123045,140.84076725878907Q197.57644276123045,140.94452825878906,197.33104276123046,141.06045525878906Q197.08564276123047,141.17638525878905,196.84614276123045,141.30419525878906Q196.60674276123046,141.43201525878905,196.37384276123046,141.57140525878907Q196.14094276123046,141.71079525878906,195.91524276123047,141.86143525878907Q195.68954276123048,142.01207525878905,195.47144276123046,142.17359525878905Q195.25334276123047,142.33510525878907,195.04344276123047,142.50711525878907Q194.83364276123046,142.67912525878907,194.63244276123046,142.86121525878906Q194.43124276123046,143.04330525878908,194.23934276123046,143.23502525878905Q194.04734276123048,143.42675525878906,193.86494276123045,143.62765525878908Q193.68264276123045,143.82855525878907,193.51044276123048,144.03814525878906Q193.33814276123047,144.24774525878905,193.17644276123048,144.46552525878906Q193.01474276123048,144.68330525878906,192.86384276123047,144.90874525878905Q192.71304276123047,145.13419525878905,192.57344276123047,145.36675525878906Q192.43384276123047,145.59932525878907,192.30594276123048,145.83844525878905Q192.17794276123047,146.07757525878907,192.06184276123048,146.32267525878908Q191.94574276123046,146.56778525878906,191.84184276123045,146.81828525878907Q191.73794276123047,147.06878525878906,191.64644276123047,147.32407525878907Q191.55504276123048,147.57936525878907,191.47624276123048,147.83883525878906Q191.39744276123048,148.09829525878905,191.33144276123048,148.36131525878906Q191.26544276123047,148.62432525878907,191.21254276123045,148.89025525878907Q191.15954276123045,149.15618525878907,191.11974276123047,149.42439525878905Q191.07984276123045,149.69259525878905,191.05324276123048,149.96243525878907Q191.02664276123048,150.23231525878907,191.01334276123046,150.50311525878905Q190.99994276123047,150.77391525878906,190.99994276123047,151.04501525878905Q190.99994276123047,151.39191525878906,191.02174276123048,151.73801525878906Q191.04354276123047,152.08411525878907,191.08704276123046,152.42821525878907Q191.13054276123046,152.77231525878906,191.19554276123046,153.11301525878906Q191.26064276123049,153.45371525878906,191.34694276123048,153.78971525878907Q191.43324276123047,154.12561525878905,191.54044276123045,154.45551525878906Q191.6476427612305,154.78541525878907,191.77544276123047,155.10791525878906Q191.90314276123047,155.43041525878905,192.05094276123046,155.74431525878907Q192.19874276123048,156.05821525878906,192.36594276123049,156.36221525878906Q192.53304276123046,156.66621525878907,192.71904276123047,156.95911525878907Q192.90504276123048,157.25201525878907,193.10904276123046,157.53271525878907Q193.31294276123046,157.81341525878906,193.53424276123047,158.08071525878907Q193.75544276123048,158.34811525878905,193.99304276123047,158.60111525878906Q194.23064276123046,158.85401525878905,194.48364276123047,159.09161525878906Q194.73664276123048,159.32921525878908,195.00404276123047,159.55051525878906Q195.27154276123048,159.77171525878907,195.55234276123048,159.97581525878905Q195.83314276123048,160.17991525878907,196.12624276123046,160.36601525878905L196.07114276123048,183.59331525878906Q195.45324276123046,183.67291525878906,194.84154276123047,183.79141525878907Q194.22994276123046,183.90991525878906,193.62704276123048,184.06681525878906Q193.02414276123048,184.22381525878905,192.43244276123048,184.41871525878906Q191.84064276123047,184.61351525878905,191.26254276123046,184.84541525878905Q190.68434276123048,185.07731525878907,190.12204276123046,185.34531525878907Q189.55974276123047,185.61341525878908,189.01564276123048,185.91651525878905Q188.47154276123047,186.21961525878908,187.94774276123047,186.55651525878906Q187.42394276123048,186.89351525878908,186.92254276123046,187.26291525878906Q186.42124276123047,187.63231525878905,185.94434276123047,188.03271525878907Q185.46744276123047,188.43311525878906,185.01694276123047,188.86301525878906Q184.56634276123046,189.29281525878906,184.14404276123048,189.75021525878907Q183.72174276123047,190.20771525878905,183.32924276123046,190.69101525878907Q182.93684276123048,191.17431525878908,182.57584276123046,191.68141525878906Q182.21484276123047,192.18861525878907,181.88684276123047,192.71761525878907Q181.55874276123046,193.24661525878906,181.2649427612305,193.79531525878906Q180.97114276123045,194.34401525878906,180.71274276123046,194.91011525878906L155.60084276123047,189.97081525878906Q155.44914276123046,189.58701525878905,155.26924276123046,189.21561525878906Q155.08924276123048,188.84431525878907,154.88204276123048,188.48731525878907Q154.67484276123048,188.13041525878907,154.44164276123047,187.78991525878905Q154.20834276123048,187.44941525878906,153.95024276123047,187.12721525878908Q153.69214276123046,186.80501525878907,153.41074276123047,186.50301525878905Q153.12934276123048,186.20091525878905,152.82614276123047,185.92071525878907Q152.52294276123047,185.64041525878906,152.19964276123048,185.38361525878906Q151.87634276123046,185.12671525878906,151.53484276123046,184.89461525878906Q151.19324276123047,184.66251525878906,150.83524276123046,184.45661525878907Q150.47734276123046,184.25061525878905,150.10494276123046,184.07191525878906Q149.73264276123047,183.89311525878907,149.34794276123046,183.74261525878907Q148.96324276123048,183.59221525878905,148.56844276123047,183.47071525878906Q148.17364276123047,183.34931525878906,147.77084276123048,183.25771525878906Q147.36804276123047,183.16601525878906,146.95944276123046,183.10461525878907Q146.55094276123046,183.04331525878905,146.13894276123048,183.01251525878905Q145.72694276123048,182.98171525878905,145.31384276123046,182.98171525878905Q145.04234276123046,182.98171525878905,144.77114276123046,182.99501525878907Q144.50004276123047,183.00831525878905,144.22981276123048,183.03491525878906Q143.95962276123046,183.06141525878905,143.69106276123046,183.10121525878907Q143.42250276123048,183.14101525878905,143.15621276123048,183.19391525878905Q142.88993276123045,183.24681525878907,142.62656276123047,183.31271525878907Q142.36320276123047,183.37861525878907,142.10339276123048,183.45731525878907Q141.84358276123046,183.53601525878906,141.58795276123047,183.62731525878905Q141.33232276123047,183.71871525878908,141.08149276123046,183.82241525878908Q140.83065276123048,183.92621525878906,140.58522276123045,184.04211525878907Q140.33978276123048,184.15811525878905,140.10034276123048,184.28591525878906Q139.86090276123048,184.41371525878907,139.62803276123046,184.55311525878906Q139.39515276123046,184.69251525878906,139.16941276123046,184.84311525878906Q138.94366276123046,184.99371525878905,138.72559276123047,185.15531525878907Q138.50752276123046,185.31681525878906,138.29765276123047,185.48881525878906Q138.08777276123047,185.66081525878906,137.88661276123048,185.84291525878905Q137.68544276123046,186.02501525878907,137.49346276123046,186.21671525878907Q137.30148276123046,186.40841525878906,137.11915276123048,186.60931525878905Q136.93682276123047,186.81021525878907,136.76458276123046,187.01981525878907Q136.59234276123047,187.22941525878906,136.43061276123046,187.44721525878907Q136.26888276123046,187.66501525878905,136.11804276123047,187.89041525878906Q135.96720276123048,188.11591525878907,135.82762276123046,188.34841525878906Q135.68804276123046,188.58101525878908,135.56006276123045,188.82011525878906Q135.43207276123047,189.05921525878907,135.31599276123046,189.30441525878905Q135.19991276123048,189.54951525878906,135.09601376123047,189.80001525878907Q134.99211476123048,190.05051525878906,134.90064876123046,190.30581525878907Q134.80918276123046,190.56101525878907,134.73037076123046,190.82051525878907Q134.65155776123046,191.08001525878905,134.58558876123047,191.34301525878908Q134.51961976123047,191.60601525878906,134.46665176123048,191.87191525878904Q134.41368476123046,192.13791525878906,134.37384776123048,192.40611525878907Q134.33401006123046,192.67431525878908,134.30739836123047,192.94411525878905Q134.28078656123046,193.21391525878906,134.26746466123046,193.48481525878907Q134.25414276123047,193.75561525878908,134.25414276123047,194.02671525878907Q134.25414276123047,194.29781525878906,134.26746466123046,194.56871525878907Q134.28078656123046,194.83951525878905,134.30739836123047,195.10931525878905Q134.33401006123046,195.37911525878906,134.37384776123048,195.64731525878906Q134.41368476123046,195.91561525878905,134.46665176123048,196.18151525878906Q134.51961976123047,196.44741525878908,134.58558876123047,196.71041525878906Q134.65155776123046,196.97341525878906,134.73037076123046,197.23291525878906Q134.80918276123046,197.49241525878907,134.90064876123046,197.74771525878907Q134.99211476123048,198.00291525878907,135.09601376123047,198.25341525878906Q135.19991276123048,198.50391525878905,135.31599276123046,198.74911525878906Q135.43207276123047,198.99421525878907,135.56006276123045,199.23331525878905Q135.68804276123046,199.47241525878906,135.82762276123046,199.70501525878905Q135.96720276123048,199.93751525878906,136.11804276123047,200.16301525878907Q136.26888276123046,200.38841525878905,136.43061276123046,200.60621525878906Q136.59234276123047,200.82401525878907,136.76458276123046,201.03361525878907Q136.93682276123047,201.24321525878906,137.11915276123048,201.44411525878905Q137.30148276123046,201.64501525878907,137.49346276123046,201.83671525878907Q137.68544276123046,202.02841525878907,137.88660276123048,202.21051525878906Q138.08777276123047,202.39261525878908,138.29765276123047,202.56461525878905Q138.50752276123046,202.73661525878907,138.72559276123047,202.89811525878906Q138.94366276123046,203.05971525878905,139.16941276123046,203.21031525878905Q139.39515276123046,203.36091525878908,139.62803276123046,203.50031525878907Q139.86090276123048,203.63971525878907,140.10034276123048,203.76751525878905Q140.33978276123048,203.89541525878906,140.58522276123045,204.01131525878907Q140.83065276123048,204.12721525878908,141.08149276123046,204.23101525878906Q141.33232276123047,204.33471525878906,141.58795276123047,204.42611525878908Q141.84358276123046,204.51741525878907,142.10339276123048,204.59611525878907Q142.36320276123047,204.67481525878907,142.62656276123047,204.74071525878907Q142.88993276123045,204.80661525878907,143.15621276123048,204.85951525878906Q143.42250276123048,204.91241525878905,143.69106276123046,204.95221525878907Q143.95962276123046,204.99201525878908,144.22981276123048,205.01851525878908Q144.50004276123047,205.04511525878905,144.77114276123046,205.05841525878907Q145.04234276123046,205.07171525878908,145.31384276123046,205.07171525878908Q145.93874276123046,205.07171525878908,146.55974276123047,205.00141525878905Q147.18064276123047,204.93111525878908,147.78974276123046,204.79141525878907Q148.39884276123047,204.65171525878907,148.98824276123048,204.44441525878906Q149.57764276123046,204.23701525878906,150.13994276123046,203.96471525878906Q150.70224276123048,203.69231525878905,151.23024276123047,203.35851525878905Q151.75824276123046,203.02461525878905,152.24524276123046,202.63351525878906Q152.73214276123048,202.24231525878906,153.17194276123047,201.79891525878907Q153.61164276123048,201.35551525878907,153.99864276123046,200.86541525878906L179.14104276123047,205.81081525878906Q179.24154276123048,206.51521525878906,179.39294276123047,207.21041525878906Q179.54434276123047,207.90561525878906,179.74574276123047,208.58801525878906Q179.94724276123048,209.27051525878906,180.19764276123047,209.93651525878906Q180.44804276123045,210.60261525878906,180.74614276123046,211.24881525878908Q181.04424276123046,211.89501525878904,181.38854276123047,212.51791525878906Q181.73274276123047,213.14081525878908,182.12124276123046,213.73721525878906Q182.50974276123048,214.33361525878905,182.94044276123049,214.90031525878908Q183.37124276123046,215.46701525878905,183.84194276123048,216.00101525878907L168.43954276123048,235.83661525878907Q167.70874276123047,235.73891525878906,166.97134276123046,235.73891525878906Q166.69984276123046,235.73891525878906,166.42864276123046,235.75221525878908Q166.15744276123047,235.76551525878907,165.88724276123048,235.79211525878907Q165.61704276123046,235.81861525878907,165.34854276123048,235.85841525878908Q165.07994276123048,235.89821525878907,164.81364276123048,235.95111525878906Q164.54744276123046,236.00401525878908,164.28404276123047,236.06991525878908Q164.02064276123048,236.13581525878908,163.76084276123046,236.21451525878905Q163.50104276123048,236.29321525878908,163.24544276123046,236.38451525878907Q162.98974276123047,236.47591525878906,162.73894276123048,236.57961525878906Q162.48814276123048,236.68341525878907,162.24264276123046,236.79931525878908Q161.99724276123047,236.91521525878906,161.75784276123048,237.04301525878907Q161.51834276123046,237.17091525878908,161.28554276123046,237.31021525878907Q161.05264276123046,237.44961525878907,160.82684276123047,237.60031525878907Q160.60114276123048,237.75091525878906,160.38304276123046,237.91241525878905Q160.16494276123046,238.07401525878907,159.95514276123046,238.24601525878904Q159.74524276123046,238.41801525878907,159.54404276123046,238.60011525878906Q159.34294276123046,238.78211525878908,159.15094276123045,238.97391525878908Q158.95894276123047,239.16561525878905,158.77664276123048,239.36651525878906Q158.59424276123048,239.56741525878908,158.42204276123047,239.77701525878905Q158.24984276123047,239.98661525878907,158.08804276123047,240.20401525878907Q157.92634276123047,240.42201525878906,157.77554276123047,240.64801525878906Q157.62464276123046,240.87301525878905,157.48504276123046,241.10601525878906Q157.34554276123046,241.33801525878906,157.21754276123048,241.57701525878906Q157.08954276123046,241.81601525878907,156.97344276123047,242.06201525878907Q156.85734276123048,242.30701525878908,156.75344276123047,242.55701525878908Q156.64954276123046,242.80801525878906,156.55814276123047,243.06301525878905Q156.46664276123047,243.31801525878905,156.38784276123047,243.57801525878907Q156.30904276123047,243.83701525878905,156.24304276123047,244.10001525878906Q156.17704276123047,244.36301525878906,156.12414276123047,244.62901525878908Q156.07114276123048,244.89501525878904,156.03134276123046,245.16301525878907Q155.99144276123047,245.43101525878905,155.96484276123047,245.70101525878906Q155.93824276123047,245.97101525878907,155.92494276123045,246.24201525878908Q155.91164276123047,246.51301525878907,155.91164276123047,246.78401525878905Q155.91164276123047,247.05501525878907,155.92494276123045,247.32601525878906Q155.93824276123047,247.59701525878904,155.96484276123047,247.86601525878905Q155.99144276123047,248.13601525878906,156.03134276123046,248.40501525878906Q156.07114276123048,248.67301525878906,156.12414276123047,248.93901525878906Q156.17704276123047,249.20501525878905,156.24304276123047,249.46801525878908Q156.30904276123047,249.73101525878906,156.38784276123047,249.99001525878907Q156.46664276123047,250.25001525878906,156.55814276123047,250.50501525878906Q156.64954276123046,250.76001525878905,156.75344276123047,251.01101525878906Q156.85734276123048,251.26101525878906,156.97344276123047,251.50601525878906Q157.08954276123046,251.75101525878907,157.21754276123048,251.99001525878907Q157.34554276123046,252.23001525878908,157.48504276123046,252.46201525878905Q157.62464276123046,252.69501525878906,157.77554276123047,252.92001525878908Q157.92634276123047,253.14601525878908,158.08804276123047,253.36301525878906Q158.24984276123047,253.58101525878908,158.42204276123047,253.79101525878906Q158.59424276123048,254.00001525878906,158.77664276123048,254.20101525878906Q158.95894276123047,254.40201525878905,159.15094276123045,254.59401525878906Q159.34294276123046,254.78601525878906,159.54404276123046,254.96801525878908Q159.74524276123046,255.15001525878907,159.95514276123046,255.32201525878907Q160.16494276123046,255.49401525878906,160.38304276123046,255.65501525878906Q160.60114276123048,255.81701525878907,160.82684276123047,255.96701525878905Q161.05264276123046,256.11801525878906,161.28554276123046,256.25701525878907Q161.51834276123046,256.39701525878905,161.75784276123048,256.52501525878904Q161.99724276123047,256.6530152587891,162.24264276123046,256.7680152587891Q162.48814276123048,256.8840152587891,162.73894276123048,256.98801525878906Q162.98974276123047,257.09201525878905,163.24544276123046,257.18301525878906Q163.50104276123048,257.27501525878904,163.76084276123046,257.35301525878907Q164.02064276123048,257.4320152587891,164.28404276123047,257.49801525878905Q164.54744276123046,257.564015258789,164.81364276123048,257.6170152587891Q165.07994276123048,257.6700152587891,165.34854276123048,257.70901525878907Q165.61714276123047,257.7490152587891,165.88724276123048,257.7760152587891Q166.15744276123047,257.8020152587891,166.42864276123046,257.8160152587891Q166.69984276123046,257.82901525878907,166.97134276123046,257.82901525878907Q167.24284276123046,257.82901525878907,167.51404276123048,257.8160152587891Q167.78514276123047,257.8020152587891,168.05534276123046,257.7760152587891Q168.32554276123045,257.7490152587891,168.59414276123047,257.70901525878907Q168.86264276123046,257.6700152587891,169.12894276123046,257.6170152587891Q169.39524276123046,257.564015258789,169.65864276123045,257.49801525878905Q169.92194276123047,257.4320152587891,170.18184276123048,257.35301525878907Q170.44164276123047,257.27501525878904,170.69724276123048,257.18301525878906Q170.95284276123047,257.09201525878905,171.20374276123047,256.98801525878906Q171.45454276123047,256.8840152587891,171.69994276123046,256.7680152587891Q171.94534276123048,256.6530152587891,172.18484276123047,256.52501525878904Q172.42424276123046,256.39701525878905,172.65714276123046,256.25701525878907Q172.89004276123046,256.11801525878906,173.11574276123048,255.96701525878905Q173.34154276123047,255.81701525878907,173.55954276123046,255.65501525878906Q173.77764276123048,255.49401525878906,173.9875427612305,255.32201525878907Q174.19744276123046,255.15001525878907,174.39854276123046,254.96801525878908Q174.59974276123046,254.78601525878906,174.79174276123047,254.59401525878906Q174.98374276123047,254.40201525878905,175.16604276123047,254.20101525878906Q175.34834276123047,254.00001525878906,175.52064276123048,253.79101525878906Q175.69284276123045,253.58101525878908,175.85454276123048,253.36301525878906Q176.01634276123048,253.14601525878908,176.16714276123048,252.92001525878908Q176.31794276123048,252.69501525878906,176.45754276123046,252.46201525878905Q176.5971427612305,252.23001525878908,176.72514276123047,251.99001525878907Q176.85314276123046,251.75101525878907,176.96914276123047,251.50601525878906Q177.08524276123046,251.26101525878906,177.18914276123047,251.01101525878906Q177.29304276123048,250.76001525878905,177.38454276123048,250.50501525878906Q177.47604276123047,250.25001525878906,177.55484276123047,249.99001525878907Q177.63364276123048,249.73101525878906,177.69964276123048,249.46801525878908Q177.76554276123048,249.20501525878905,177.81854276123047,248.93901525878906Q177.87154276123047,248.67301525878906,177.91134276123046,248.40501525878906Q177.95114276123047,248.13601525878906,177.97774276123047,247.86601525878905Q178.00444276123048,247.59701525878904,178.01774276123047,247.32601525878906Q178.03104276123048,247.05501525878907,178.03104276123048,246.78401525878905Q178.03104276123048,245.68701525878907,177.81484276123047,244.61101525878905Q177.59864276123045,243.53501525878906,177.17474276123048,242.52201525878905L193.18834276123047,221.89961525878908Q195.83184276123046,222.65361525878905,198.58114276123047,222.65361525878905Q200.33164276123046,222.65361525878905,202.05454276123046,222.34431525878907Q203.77744276123047,222.03511525878906,205.41844276123047,221.42641525878906L221.22594276123047,244.46801525878908Q220.93054276123047,245.04801525878906,220.70534276123047,245.65901525878905Q220.48014276123047,246.26901525878907,220.32824276123046,246.90201525878905Q220.17634276123047,247.53501525878906,220.09984276123046,248.18101525878905Q220.02334276123048,248.82701525878906,220.02334276123048,249.47701525878907Q220.02334276123048,249.74801525878905,220.03664276123047,250.01901525878907Q220.0500427612305,250.29001525878908,220.07664276123046,250.56001525878906Q220.1032427612305,250.83001525878905,220.14304276123048,251.09801525878908Q220.18294276123046,251.36601525878905,220.23584276123046,251.63201525878907Q220.28884276123046,251.89801525878906,220.3548427612305,252.16101525878906Q220.42074276123049,252.42401525878907,220.49964276123046,252.68301525878906Q220.5783427612305,252.94301525878905,220.66984276123048,253.19801525878904Q220.76134276123048,253.45301525878907,220.86524276123046,253.70401525878907Q220.96914276123047,253.95401525878907,221.08524276123046,254.20001525878905Q221.20134276123048,254.44501525878906,221.3292427612305,254.68401525878906Q221.45724276123048,254.92301525878906,221.59684276123045,255.15501525878906Q221.73644276123048,255.38801525878907,221.88724276123048,255.61301525878906Q222.03814276123046,255.83901525878906,222.19984276123046,256.0570152587891Q222.36154276123045,256.27401525878906,222.53384276123046,256.48401525878904Q222.70604276123046,256.6940152587891,222.8883427612305,256.89501525878904Q223.07074276123046,257.0950152587891,223.26264276123047,257.2870152587891Q223.45464276123047,257.47901525878905,223.65584276123047,257.66101525878906Q223.85704276123047,257.8430152587891,224.06684276123048,258.01501525878905Q224.27674276123048,258.1870152587891,224.49484276123047,258.34901525878905Q224.71284276123046,258.51001525878905,224.93864276123048,258.66101525878906Q225.16434276123047,258.8110152587891,225.39724276123047,258.9510152587891Q225.63014276123047,259.0900152587891,225.86954276123046,259.2180152587891Q226.10904276123046,259.34601525878907,226.35444276123047,259.46201525878905Q226.59984276123046,259.57801525878904,226.85074276123046,259.68101525878905Q227.10154276123046,259.78501525878903,227.35714276123048,259.8770152587891Q227.61284276123047,259.9680152587891,227.87264276123045,260.0470152587891Q228.13244276123046,260.12501525878906,228.39574276123045,260.1910152587891Q228.65914276123047,260.25701525878907,228.92544276123047,260.31001525878906Q229.19174276123047,260.36301525878906,229.46024276123046,260.4030152587891Q229.72884276123045,260.44201525878907,229.99904276123047,260.46901525878906Q230.2692427612305,260.49601525878904,230.54044276123045,260.5090152587891Q230.81154276123047,260.52201525878905,231.08304276123047,260.52201525878905Q231.35454276123045,260.52201525878905,231.62574276123047,260.5090152587891Q231.89694276123046,260.49601525878904,232.16714276123048,260.46901525878906Q232.43734276123047,260.44201525878907,232.70584276123049,260.4030152587891Q232.97444276123048,260.36301525878906,233.24074276123048,260.31001525878906Q233.50704276123048,260.25701525878907,233.77034276123047,260.1910152587891Q234.03374276123049,260.12501525878906,234.29314276123046,260.0470152587891Q234.55314276123048,259.9680152587891,234.80914276123048,259.8770152587891Q235.06414276123047,259.78501525878903,235.31514276123048,259.68101525878905Q235.56614276123048,259.57801525878904,235.81214276123046,259.46201525878905Q236.05714276123047,259.34601525878907,236.29614276123047,259.2180152587891Q236.53614276123045,259.0900152587891,236.76914276123046,258.9510152587891Q237.00214276123046,258.8110152587891,237.22714276123048,258.66101525878906Q237.45314276123048,258.51001525878905,237.67114276123047,258.34901525878905Q237.88914276123046,258.1870152587891,238.09914276123047,258.01501525878905Q238.30914276123048,257.8430152587891,238.51014276123047,257.66101525878906Q238.71114276123046,257.47901525878905,238.90314276123047,257.2870152587891Q239.09514276123048,257.0950152587891,239.27814276123047,256.89501525878904Q239.4601427612305,256.6940152587891,239.63214276123045,256.48401525878904Q239.80414276123048,256.27401525878906,239.96614276123046,256.0570152587891Q240.12814276123046,255.83901525878906,240.27914276123047,255.61301525878906Q240.43014276123046,255.38801525878907,240.56914276123047,255.15501525878906Q240.70914276123045,254.92301525878906,240.83714276123047,254.68401525878906Q240.96514276123048,254.44501525878906,241.08114276123047,254.20001525878905Q241.19714276123045,253.95401525878907,241.30114276123047,253.70401525878907Q241.40514276123048,253.45301525878907,241.4961427612305,253.19801525878904Q241.58814276123047,252.94301525878905,241.66614276123047,252.68301525878906Q241.74514276123045,252.42401525878907,241.81114276123049,252.16101525878906Q241.87714276123046,251.89801525878906,241.93014276123046,251.63201525878907Q241.98314276123045,251.36601525878905,242.02314276123047,251.09801525878908Q242.06314276123047,250.83001525878905,242.08914276123045,250.56001525878906Q242.11614276123046,250.29001525878908,242.12914276123047,250.01901525878907Q242.14314276123048,249.74801525878905,242.14314276123048,249.47701525878907Q242.14314276123048,249.20601525878908,242.12914276123047,248.93501525878906Q242.11614276123046,248.66401525878905,242.08914276123045,248.39501525878904Q242.06314276123047,248.12501525878906,242.02314276123047,247.85701525878906Q241.98314276123045,247.58801525878906,241.93014276123046,247.32201525878907Q241.87714276123046,247.05601525878905,241.81114276123049,246.79301525878907Q241.74514276123045,246.53001525878906,241.66614276123047,246.27101525878908Q241.58814276123047,246.01201525878906,241.4961427612305,245.75601525878906Q241.40514276123048,245.50101525878907,241.30114276123047,245.25001525878906Q241.19714276123045,245.00001525878906,241.08114276123047,244.75501525878906Q240.96514276123048,244.51001525878905,240.83714276123047,244.27101525878908Q240.70914276123045,244.03101525878907,240.56914276123047,243.79901525878907Q240.43014276123046,243.56601525878907,240.27914276123047,243.34101525878907Q240.12814276123046,243.11501525878907,239.96614276123046,242.89801525878906Q239.80414276123048,242.68001525878907,239.63214276123045,242.47001525878906Q239.4601427612305,242.26101525878906,239.27814276123047,242.06001525878906Q239.09514276123048,241.85901525878904,238.90314276123047,241.66701525878906Q238.71114276123046,241.47501525878906,238.51014276123047,241.29301525878907Q238.30914276123048,241.11101525878905,238.09914276123047,240.93901525878906Q237.88914276123046,240.76701525878906,237.67114276123047,240.60601525878906Q237.45314276123048,240.44401525878908,237.22714276123048,240.29401525878905Q237.00214276123046,240.14301525878906,236.76914276123046,240.00401525878908Q236.53614276123045,239.86421525878905,236.29614276123047,239.73641525878907Q236.05714276123047,239.60861525878906,235.81214276123046,239.49261525878904Q235.56614276123048,239.37671525878906,235.31514276123048,239.27291525878906Q235.06414276123047,239.16921525878905,234.80914276123048,239.07781525878906Q234.55314276123048,238.98651525878907,234.29314276123046,238.90781525878907Q234.03374276123049,238.82911525878905,233.77034276123047,238.76321525878905Q233.50704276123048,238.69731525878905,233.24074276123048,238.64441525878908Q232.97444276123048,238.59151525878906,232.70584276123049,238.55171525878905Q232.43734276123047,238.51191525878906,232.16714276123048,238.48541525878906Q231.89694276123046,238.45881525878906,231.62574276123047,238.44551525878904Q231.35454276123045,238.43221525878906,231.08304276123047,238.43221525878906Q230.75994276123046,238.43221525878906,230.43734276123047,238.45101525878906L214.25274276123048,214.85941525878906Q215.06394276123046,213.78631525878905,215.72094276123048,212.61281525878906Q216.37784276123045,211.43931525878907,216.86834276123045,210.18721525878908Q217.35874276123047,208.93511525878907,217.67354276123046,207.62791525878907Q217.98824276123048,206.32061525878908,218.12144276123047,204.98271525878906L246.7101427612305,198.52911525878906Q246.90314276123047,198.77841525878907,247.11014276123046,199.01621525878906Q247.31714276123046,199.25411525878906,247.53714276123048,199.47971525878907Q247.7581427612305,199.70541525878906,247.99014276123046,199.91821525878908Q248.22314276123046,200.13101525878906,248.46714276123046,200.33021525878905Q248.71214276123047,200.52941525878907,248.96714276123046,200.71431525878907Q249.22314276123046,200.89931525878904,249.48814276123045,201.06941525878906Q249.75414276123047,201.23951525878905,250.02814276123047,201.39421525878907Q250.30314276123048,201.54891525878907,250.58614276123046,201.68771525878907Q250.87014276123045,201.82651525878907,251.16014276123047,201.94901525878907Q251.45114276123047,202.07151525878908,251.74814276123047,202.17721525878906Q252.04514276123047,202.28291525878905,252.34814276123046,202.37161525878906Q252.65114276123046,202.46021525878905,252.95814276123048,202.53151525878906Q253.26514276123046,202.60271525878906,253.57614276123047,202.65641525878905Q253.88714276123045,202.71001525878907,254.20114276123047,202.74591525878907Q254.51414276123046,202.78171525878906,254.82914276123046,202.79971525878906Q255.14414276123046,202.81761525878906,255.45914276123045,202.81761525878906Q255.73114276123047,202.81761525878906,256.00214276123046,202.80431525878907Q256.2731427612305,202.79101525878906,256.5441427612305,202.76451525878906Q256.81414276123047,202.73791525878906,257.08214276123044,202.69811525878907Q257.35114276123045,202.65831525878906,257.61714276123047,202.60541525878907Q257.8831427612305,202.55251525878907,258.1471427612305,202.48661525878907Q258.4101427612305,202.42071525878907,258.67014276123047,202.34201525878905Q258.93014276123046,202.26331525878908,259.18514276123045,202.17201525878906Q259.4411427612305,202.08061525878907,259.69214276123046,201.97691525878906Q259.94314276123043,201.87311525878906,260.18814276123044,201.75721525878907Q260.4341427612305,201.64131525878906,260.67314276123045,201.51351525878906Q260.9121427612305,201.38561525878907,261.1451427612305,201.24621525878905Q261.3781427612305,201.10691525878906,261.6041427612305,200.95621525878906Q261.8301427612305,200.80561525878906,262.04814276123045,200.64411525878907Q262.26614276123047,200.48251525878908,262.47614276123045,200.31051525878905Q262.6861427612305,200.13851525878906,262.8871427612305,199.95641525878906Q263.0881427612305,199.77441525878908,263.2801427612305,199.58261525878908Q263.47214276123043,199.39091525878905,263.65414276123045,199.19001525878906Q263.83614276123046,198.98911525878907,264.00914276123046,198.77951525878905Q264.1811427612305,198.56991525878905,264.34314276123047,198.35211525878907Q264.50414276123047,198.13431525878906,264.6551427612305,197.90891525878908Q264.8061427612305,197.68351525878907,264.9461427612305,197.45091525878905Q265.0851427612305,197.21831525878906,265.2131427612305,196.97921525878905Q265.34114276123046,196.74011525878905,265.45714276123044,196.49501525878907Q265.57314276123043,196.24991525878906,265.67714276123047,195.99941525878907Q265.78114276123046,195.74891525878905,265.8731427612305,195.49361525878908Q265.9641427612305,195.23831525878907,266.04314276123046,194.97881525878907Q266.12214276123046,194.71941525878907,266.18814276123044,194.45631525878906Q266.25414276123047,194.19331525878906,266.30714276123047,193.92741525878907Q266.36014276123046,193.66151525878905,266.39914276123045,193.39331525878907Q266.43914276123047,193.12501525878906,266.46614276123046,192.85521525878906Q266.4931427612305,192.58541525878906,266.5061427612305,192.31461525878905Q266.51914276123046,192.04381525878907,266.51914276123046,191.77261525878907Q266.51914276123046,191.50151525878906,266.5061427612305,191.23071525878908Q266.4931427612305,190.95991525878907,266.46614276123046,190.69001525878906Q266.43914276123047,190.42021525878906,266.39914276123045,190.15201525878905Q266.36014276123046,189.88381525878907,266.30714276123047,189.61781525878905Q266.25414276123047,189.35191525878906,266.18814276123044,189.08891525878906Q266.12214276123046,188.82591525878905,266.04314276123046,188.56641525878905Q265.9641427612305,188.30701525878908,265.8731427612305,188.05171525878905Q265.78114276123046,187.79641525878907,265.67714276123047,187.54591525878908Q265.57314276123043,187.29541525878906,265.45714276123044,187.05031525878906Q265.34114276123046,186.80521525878908,265.2131427612305,186.56601525878907Q265.0851427612305,186.32691525878906,264.9461427612305,186.09431525878907Q264.8061427612305,185.86181525878908,264.6551427612305,185.63631525878907Q264.50414276123047,185.41091525878906,264.34314276123047,185.19311525878908Q264.1811427612305,184.97531525878907,264.00914276123046,184.76571525878907Q263.83614276123046,184.55611525878908,263.65414276123045,184.35521525878906Q263.47214276123043,184.15431525878907,263.2801427612305,183.96261525878907Q263.0881427612305,183.77091525878905,262.8871427612305,183.58881525878905Q262.6861427612305,183.40671525878906,262.47614276123045,183.23471525878907Q262.26614276123047,183.06271525878907,262.04814276123045,182.90121525878908Q261.8301427612305,182.73971525878906,261.6041427612305,182.58901525878906Q261.3781427612305,182.43841525878906,261.1451427612305,182.29901525878907Q260.9121427612305,182.15961525878907,260.67314276123045,182.03181525878907Q260.4341427612305,181.90401525878906,260.18814276123044,181.78801525878907Q259.94314276123043,181.67211525878906,259.69214276123046,181.56831525878906Q259.4411427612305,181.46461525878905,259.18514276123045,181.37321525878906Q258.93014276123046,181.28191525878907,258.67014276123047,181.20321525878907Q258.4101427612305,181.12451525878907,258.1471427612305,181.05861525878908Q257.8831427612305,180.99271525878908,257.61714276123047,180.93981525878905Q257.35114276123045,180.88691525878906,257.08214276123044,180.84711525878907Q256.81414276123047,180.80741525878906,256.5441427612305,180.78081525878906Q256.2731427612305,180.75421525878906,256.00214276123046,180.74091525878907Q255.73114276123047,180.72761525878906,255.45914276123045,180.72761525878906Q255.05114276123047,180.72761525878906,254.64314276123048,180.75771525878906Q254.23514276123046,180.78791525878907,253.83114276123047,180.84801525878908Q253.42714276123047,180.90811525878905,253.02814276123047,180.99781525878905Q252.62914276123047,181.08761525878907,252.23814276123045,181.20651525878907Q251.8471427612305,181.32541525878906,251.46614276123046,181.47281525878907Q251.0851427612305,181.62021525878907,250.71514276123048,181.79531525878906Q250.34614276123045,181.97051525878908,249.99114276123046,182.17231525878907Q249.63614276123047,182.37421525878906,249.29614276123047,182.60171525878906Q248.95714276123047,182.82921525878908,248.63514276123047,183.08111525878905Q248.31314276123047,183.33301525878906,248.01114276123047,183.60791525878906Q247.70914276123045,183.88281525878907,247.42814276123048,184.17931525878907Q247.14714276123047,184.47581525878905,246.88914276123046,184.79211525878907Q246.63014276123047,185.10851525878905,246.39614276123046,185.44301525878905Q246.16214276123048,185.77761525878907,245.95314276123048,186.12851525878907Q245.74414276123048,186.47941525878906,245.56214276123046,186.84481525878905Q245.37914276123047,187.21011525878907,245.22414276123047,187.58791525878905L216.08994276123047,194.16461525878907Q215.72634276123046,193.44941525878906,215.30544276123047,192.76621525878906Q214.88454276123048,192.08301525878906,214.40914276123047,191.43651525878906Q213.93374276123046,190.78991525878905,213.40704276123046,190.18431525878907Q212.88044276123048,189.57871525878906,212.30594276123048,189.01801525878906Q211.73154276123046,188.45741525878907,211.11314276123045,187.94541525878907Q210.49484276123047,187.43351525878907,209.83664276123045,186.97371525878907Q209.17844276123049,186.51401525878907,208.48494276123046,186.10941525878906Q207.79134276123045,185.70481525878907,207.06704276123048,185.35821525878907L207.12504276123047,160.86351525878905Z" fill-rule="evenodd" fill="#F56D84" fill-opacity="0.7200000286102295"/></g></g></g></svg>